# xmcd
#
# Track frame offsets:
#	150
#	19655
#	40980
#	58772
#	77972
#	103677
#	120092
#	142395
#	159527
#	180327
#	201535
#
# Disc length: 2953 seconds
#
# Revision: 1
# Processed by: cddbd v1.5PL3 Copyright (c) Steve Scherf et al.
# Submitted via: CDex 1.50Beta5
#
DISCID=970b870b
DTITLE=横山智佐 - 恋愛の才能
DYEAR=1994
DGENRE=Pop
TTITLE0=夏が来た!夏が来た!
TTITLE1=ラーメンはまずい,とわたしは思う
TTITLE2=「男が好きなのよ」
TTITLE3=うるわしのDUCK SOUP
TTITLE4=目は口程の恋じゃない
TTITLE5=ひまわり畑の…!?
TTITLE6=時代という名のひとくぎり
TTITLE7=恋愛の才能
TTITLE8=二十一世紀はまだ早い
TTITLE9=再放送
TTITLE10=ミセス・マクガフィンとコーンマフィン
EXTD=
EXTT0=
EXTT1=
EXTT2=
EXTT3=
EXTT4=
EXTT5=
EXTT6=
EXTT7=
EXTT8=
EXTT9=
EXTT10=
PLAYORDER=
